<mxfile host="app.diagrams.net" modified="2023-11-10T19:39:42.274Z" agent="Mozilla/5.0 (Macintosh; Intel Mac OS X 10_15_7) AppleWebKit/537.36 (KHTML, like Gecko) Chrome/119.0.0.0 Safari/537.36" etag="11195g7XMZUCohNX5atN" version="21.6.8" type="device">
  <diagram name="Page-1" id="Pn7UcZDyg0W6H_jQamNu">
    <mxGraphModel dx="1350" dy="984" grid="1" gridSize="10" guides="1" tooltips="1" connect="1" arrows="1" fold="1" page="1" pageScale="1" pageWidth="1100" pageHeight="850" math="0" shadow="0">
      <root>
        <mxCell id="0" />
        <mxCell id="1" parent="0" />
        <mxCell id="Oz1q3KUj0rtmrI3wOPE6-14" value="" style="rounded=1;whiteSpace=wrap;html=1;fillColor=#f8cecc;strokeColor=#b85450;" parent="1" vertex="1">
          <mxGeometry x="40" y="270" width="330" height="370" as="geometry" />
        </mxCell>
        <mxCell id="Oz1q3KUj0rtmrI3wOPE6-1" value="NCS540-EVPN-01" style="shape=mxgraph.cisco.routers.router;sketch=0;html=1;pointerEvents=1;dashed=0;fillColor=#036897;strokeColor=#ffffff;strokeWidth=2;verticalLabelPosition=bottom;verticalAlign=top;align=center;outlineConnect=0;" parent="1" vertex="1">
          <mxGeometry x="340" y="310" width="78" height="53" as="geometry" />
        </mxCell>
        <mxCell id="Oz1q3KUj0rtmrI3wOPE6-2" value="NCS540-EVPN-02" style="shape=mxgraph.cisco.routers.router;sketch=0;html=1;pointerEvents=1;dashed=0;fillColor=#036897;strokeColor=#ffffff;strokeWidth=2;verticalLabelPosition=bottom;verticalAlign=top;align=center;outlineConnect=0;" parent="1" vertex="1">
          <mxGeometry x="340" y="550" width="78" height="53" as="geometry" />
        </mxCell>
        <mxCell id="Oz1q3KUj0rtmrI3wOPE6-3" value="10.0.10.2" style="shape=mxgraph.cisco.switches.workgroup_switch;sketch=0;html=1;pointerEvents=1;dashed=0;fillColor=#036897;strokeColor=#ffffff;strokeWidth=2;verticalLabelPosition=bottom;verticalAlign=top;align=center;outlineConnect=0;" parent="1" vertex="1">
          <mxGeometry x="190" y="440" width="101" height="50" as="geometry" />
        </mxCell>
        <mxCell id="Oz1q3KUj0rtmrI3wOPE6-4" value="10.0.10.10" style="shape=mxgraph.cisco.computers_and_peripherals.workstation;sketch=0;html=1;pointerEvents=1;dashed=0;fillColor=#036897;strokeColor=#ffffff;strokeWidth=2;verticalLabelPosition=bottom;verticalAlign=top;align=center;outlineConnect=0;" parent="1" vertex="1">
          <mxGeometry x="40" y="434" width="83" height="62" as="geometry" />
        </mxCell>
        <mxCell id="Oz1q3KUj0rtmrI3wOPE6-5" value="" style="endArrow=none;html=1;rounded=0;entryX=0;entryY=0.5;entryDx=0;entryDy=0;entryPerimeter=0;" parent="1" source="Oz1q3KUj0rtmrI3wOPE6-3" target="Oz1q3KUj0rtmrI3wOPE6-1" edge="1">
          <mxGeometry width="50" height="50" relative="1" as="geometry">
            <mxPoint x="270" y="430" as="sourcePoint" />
            <mxPoint x="320" y="380" as="targetPoint" />
          </mxGeometry>
        </mxCell>
        <mxCell id="Oz1q3KUj0rtmrI3wOPE6-6" value="" style="endArrow=none;html=1;rounded=0;exitX=0.5;exitY=0.98;exitDx=0;exitDy=0;exitPerimeter=0;" parent="1" source="Oz1q3KUj0rtmrI3wOPE6-3" target="Oz1q3KUj0rtmrI3wOPE6-2" edge="1">
          <mxGeometry width="50" height="50" relative="1" as="geometry">
            <mxPoint x="600" y="530" as="sourcePoint" />
            <mxPoint x="650" y="480" as="targetPoint" />
          </mxGeometry>
        </mxCell>
        <mxCell id="Oz1q3KUj0rtmrI3wOPE6-7" value="" style="endArrow=none;dashed=1;html=1;rounded=0;entryX=0.5;entryY=1;entryDx=0;entryDy=0;entryPerimeter=0;exitX=0.5;exitY=0;exitDx=0;exitDy=0;exitPerimeter=0;" parent="1" source="Oz1q3KUj0rtmrI3wOPE6-2" target="Oz1q3KUj0rtmrI3wOPE6-1" edge="1">
          <mxGeometry width="50" height="50" relative="1" as="geometry">
            <mxPoint x="370" y="490" as="sourcePoint" />
            <mxPoint x="420" y="440" as="targetPoint" />
          </mxGeometry>
        </mxCell>
        <mxCell id="Oz1q3KUj0rtmrI3wOPE6-8" value="EVPN iBGP Peering" style="edgeLabel;html=1;align=center;verticalAlign=middle;resizable=0;points=[];" parent="Oz1q3KUj0rtmrI3wOPE6-7" vertex="1" connectable="0">
          <mxGeometry x="-0.1551" y="2" relative="1" as="geometry">
            <mxPoint as="offset" />
          </mxGeometry>
        </mxCell>
        <mxCell id="Oz1q3KUj0rtmrI3wOPE6-9" value="Po10" style="text;html=1;align=center;verticalAlign=middle;resizable=0;points=[];autosize=1;strokeColor=none;fillColor=none;" parent="1" vertex="1">
          <mxGeometry x="275" y="408" width="50" height="30" as="geometry" />
        </mxCell>
        <mxCell id="Oz1q3KUj0rtmrI3wOPE6-10" value="" style="endArrow=none;html=1;rounded=0;entryX=0;entryY=0.5;entryDx=0;entryDy=0;entryPerimeter=0;exitX=0.755;exitY=0.5;exitDx=0;exitDy=0;exitPerimeter=0;" parent="1" source="Oz1q3KUj0rtmrI3wOPE6-4" target="Oz1q3KUj0rtmrI3wOPE6-3" edge="1">
          <mxGeometry width="50" height="50" relative="1" as="geometry">
            <mxPoint x="140" y="420" as="sourcePoint" />
            <mxPoint x="190" y="370" as="targetPoint" />
          </mxGeometry>
        </mxCell>
        <mxCell id="Oz1q3KUj0rtmrI3wOPE6-11" value="MPLS Core" style="shape=mxgraph.cisco.routers.router;sketch=0;html=1;pointerEvents=1;dashed=0;fillColor=#036897;strokeColor=#ffffff;strokeWidth=2;verticalLabelPosition=bottom;verticalAlign=top;align=center;outlineConnect=0;" parent="1" vertex="1">
          <mxGeometry x="600" y="440" width="78" height="53" as="geometry" />
        </mxCell>
        <mxCell id="Oz1q3KUj0rtmrI3wOPE6-12" value="A-CS-1A-R1" style="shape=mxgraph.cisco.routers.router;sketch=0;html=1;pointerEvents=1;dashed=0;fillColor=#036897;strokeColor=#ffffff;strokeWidth=2;verticalLabelPosition=bottom;verticalAlign=top;align=center;outlineConnect=0;" parent="1" vertex="1">
          <mxGeometry x="840" y="438" width="78" height="53" as="geometry" />
        </mxCell>
        <mxCell id="Oz1q3KUj0rtmrI3wOPE6-13" value="Lo10&lt;br&gt;10.0.11.1&lt;br&gt;VRF 10" style="rounded=1;whiteSpace=wrap;html=1;fillColor=#f8cecc;strokeColor=#b85450;" parent="1" vertex="1">
          <mxGeometry x="930" y="434" width="120" height="60" as="geometry" />
        </mxCell>
        <mxCell id="Oz1q3KUj0rtmrI3wOPE6-16" value="VRF 10" style="text;html=1;strokeColor=none;fillColor=none;align=center;verticalAlign=middle;whiteSpace=wrap;rounded=0;" parent="1" vertex="1">
          <mxGeometry x="70" y="280" width="60" height="30" as="geometry" />
        </mxCell>
        <mxCell id="Oz1q3KUj0rtmrI3wOPE6-17" value="" style="endArrow=none;html=1;rounded=0;exitX=1;exitY=0.5;exitDx=0;exitDy=0;exitPerimeter=0;" parent="1" source="Oz1q3KUj0rtmrI3wOPE6-1" target="Oz1q3KUj0rtmrI3wOPE6-11" edge="1">
          <mxGeometry width="50" height="50" relative="1" as="geometry">
            <mxPoint x="640" y="330" as="sourcePoint" />
            <mxPoint x="690" y="280" as="targetPoint" />
          </mxGeometry>
        </mxCell>
        <mxCell id="Oz1q3KUj0rtmrI3wOPE6-18" value="" style="endArrow=none;html=1;rounded=0;" parent="1" source="Oz1q3KUj0rtmrI3wOPE6-2" target="Oz1q3KUj0rtmrI3wOPE6-11" edge="1">
          <mxGeometry width="50" height="50" relative="1" as="geometry">
            <mxPoint x="480" y="570" as="sourcePoint" />
            <mxPoint x="530" y="520" as="targetPoint" />
          </mxGeometry>
        </mxCell>
        <mxCell id="Oz1q3KUj0rtmrI3wOPE6-19" value="" style="endArrow=none;html=1;rounded=0;entryX=0;entryY=0.5;entryDx=0;entryDy=0;entryPerimeter=0;exitX=1;exitY=0.5;exitDx=0;exitDy=0;exitPerimeter=0;" parent="1" source="Oz1q3KUj0rtmrI3wOPE6-11" target="Oz1q3KUj0rtmrI3wOPE6-12" edge="1">
          <mxGeometry width="50" height="50" relative="1" as="geometry">
            <mxPoint x="710" y="340" as="sourcePoint" />
            <mxPoint x="760" y="290" as="targetPoint" />
          </mxGeometry>
        </mxCell>
        <mxCell id="Oz1q3KUj0rtmrI3wOPE6-20" value="Route Reflector" style="shape=mxgraph.cisco.routers.router;sketch=0;html=1;pointerEvents=1;dashed=0;fillColor=#036897;strokeColor=#ffffff;strokeWidth=2;verticalLabelPosition=bottom;verticalAlign=top;align=center;outlineConnect=0;" parent="1" vertex="1">
          <mxGeometry x="600" y="200" width="78" height="53" as="geometry" />
        </mxCell>
        <mxCell id="Oz1q3KUj0rtmrI3wOPE6-21" value="" style="endArrow=none;dashed=1;html=1;rounded=0;entryX=0.5;entryY=1;entryDx=0;entryDy=0;entryPerimeter=0;" parent="1" source="Oz1q3KUj0rtmrI3wOPE6-11" target="Oz1q3KUj0rtmrI3wOPE6-20" edge="1">
          <mxGeometry width="50" height="50" relative="1" as="geometry">
            <mxPoint x="600" y="380" as="sourcePoint" />
            <mxPoint x="650" y="330" as="targetPoint" />
          </mxGeometry>
        </mxCell>
      </root>
    </mxGraphModel>
  </diagram>
</mxfile>
